2.5Hzhigh3min_grf.mot
version=1
nRows=22
nColumns 19
inDegrees=yes
endheader
time	1_ground_force_vx	1_ground_force_vy	1_ground_force_vz	1_ground_force_px	1_ground_force_py	1_ground_force_pz	1_ground_torque_x	1_ground_torque_y	1_ground_torque_z	2_ground_force_vx	2_ground_force_vy	2_ground_force_vz	2_ground_force_px	2_ground_force_py	2_ground_force_pz	2_ground_torque_x	2_ground_torque_y	2_ground_torque_z
            1.253500	           -0.135900	           -1.444511	            0.544429	           -0.233013	            0.005581	           -0.255695	           -0.455173	           -0.377499	           -0.382263	            0.424308	           -0.735071	           -0.002808	           -0.232311	            0.006130	           -0.833667	           -0.319197	           -0.048282	           -0.037733
            1.254000	            0.368487	           -1.444610	            0.589033	           -0.233013	            0.005581	           -0.255695	           -0.475882	            0.325068	           -0.320102	            0.237470	           -0.919059	           -0.238025	           -0.232311	            0.006130	           -0.833667	           -0.375734	            0.017213	            0.094478
            1.254500	           -0.135738	           -1.084373	            0.637686	           -0.233013	            0.005581	           -0.255695	           -0.534699	            0.731858	           -0.414919	            0.096317	           -0.735920	           -0.096524	           -0.232311	            0.006130	           -0.833667	           -0.357280	            0.102556	            0.038223
            1.255000	           -0.319484	           -0.903553	            0.501347	           -0.233013	            0.005581	           -0.255695	           -0.472642	            0.676321	           -0.423136	            0.284402	           -0.919559	           -0.050333	           -0.232311	            0.006130	           -0.833667	           -0.470035	            0.111669	            0.019455
            1.255500	           -0.365636	           -1.083238	            0.363120	           -0.233013	            0.005581	           -0.255695	           -0.466635	            0.001689	           -0.465588	            0.189996	           -0.735415	           -0.143492	           -0.232311	            0.006130	           -0.833667	           -0.319430	            0.036187	            0.132222
            1.256000	           -0.364839	           -1.084614	            0.684111	           -0.233013	            0.005581	           -0.255695	           -0.442572	           -0.617765	           -0.430708	            0.285087	           -1.103875	           -0.004062	           -0.232311	            0.006130	           -0.833667	           -0.244039	           -0.048145	           -0.000065
            1.256500	           -0.181467	           -1.084579	            0.683656	           -0.233013	            0.005581	           -0.255695	           -0.498755	           -0.728773	           -0.385629	            0.236929	           -0.735915	            0.044200	           -0.232311	            0.006130	           -0.833667	           -0.394202	           -0.086364	           -0.037836
            1.257000	           -0.090431	           -1.263647	            0.407520	           -0.233013	            0.005581	           -0.255695	           -0.524633	           -0.192467	           -0.416946	            0.333205	           -1.471500	           -0.146180	           -0.232311	            0.006130	           -0.833667	           -0.319130	           -0.058004	            0.037634
            1.257500	           -0.227927	           -1.443939	            0.407088	           -0.233013	            0.005581	           -0.255695	           -0.449325	            0.435632	           -0.326307	            0.238778	           -1.287188	           -0.286268	           -0.232311	            0.006130	           -0.833667	           -0.319292	           -0.010807	            0.056653
            1.258000	           -0.136861	           -0.541807	            0.227302	           -0.233013	            0.005581	           -0.255695	           -0.517598	            0.778306	           -0.471176	            0.282970	           -0.550426	           -0.283659	           -0.232311	            0.006130	           -0.833667	           -0.394877	            0.111806	            0.057123
            1.258500	           -0.181629	           -1.444717	            0.590398	           -0.233013	            0.005581	           -0.255695	           -0.457288	            0.472874	           -0.380567	            0.143023	           -0.734579	           -0.425041	           -0.232311	            0.006130	           -0.833667	           -0.469874	            0.073657	            0.075870
            1.259000	           -0.227945	           -0.723073	            0.456036	           -0.233013	            0.005581	           -0.255695	           -0.526764	           -0.192852	           -0.347633	            0.005235	           -1.472517	           -0.192969	           -0.232311	            0.006130	           -0.833667	           -0.281884	            0.036524	            0.075656
            1.259500	           -0.273527	           -0.903741	            0.547089	           -0.233013	            0.005581	           -0.255695	           -0.493030	           -0.645628	           -0.389202	            0.049488	           -0.736257	           -0.049576	           -0.232311	            0.006130	           -0.833667	           -0.319257	           -0.029444	           -0.018816
            1.260000	           -0.273365	           -0.543603	            0.640347	           -0.233013	            0.005581	           -0.255695	           -0.515939	           -0.673360	           -0.389277	            0.516514	           -0.365097	           -0.376958	           -0.232311	            0.006130	           -0.833667	           -0.281406	           -0.095813	            0.075183
            1.260500	           -0.135803	           -0.723842	            0.639232	           -0.233013	            0.005581	           -0.255695	           -0.422062	           -0.053970	           -0.380984	            0.095050	           -0.368126	            0.045574	           -0.232311	            0.006130	           -0.833667	           -0.338137	            0.007963	            0.075578
            1.261000	            0.001923	           -1.805409	            0.634253	           -0.233013	            0.005581	           -0.255695	           -0.552739	            0.620594	           -0.315471	            0.334534	           -1.839797	           -0.147494	           -0.232311	            0.006130	           -0.833667	           -0.244576	            0.093847	           -0.056109
            1.261500	            0.001561	            0.177513	            0.642756	           -0.233013	            0.005581	           -0.255695	           -0.479129	            0.713365	           -0.390519	            0.095591	           -0.551270	           -0.236652	           -0.232311	            0.006130	           -0.833667	           -0.375980	            0.074265	            0.000430
            1.262000	           -0.228304	           -0.001617	            0.367416	           -0.233013	            0.005581	           -0.255695	           -0.448273	            0.306224	           -0.326916	           -0.137994	           -0.736264	           -0.237209	           -0.232311	            0.006130	           -0.833667	           -0.394775	            0.083448	            0.057022
            1.262500	           -0.136196	            0.177880	            0.551385	           -0.233013	            0.005581	           -0.255695	           -0.531065	           -0.405647	           -0.288263	            0.050091	           -0.919903	           -0.191018	           -0.232311	            0.006130	           -0.833667	           -0.319342	           -0.010404	           -0.056449
            1.263000	           -0.502661	           -0.723716	            0.594287	           -0.233013	            0.005581	           -0.255695	           -0.401248	           -0.738149	           -0.399607	            0.240834	           -1.840135	           -0.147455	           -0.232311	            0.006130	           -0.833667	           -0.262808	           -0.048348	            0.037644
            1.263500	           -0.227457	           -0.904125	            0.638687	           -0.233013	            0.005581	           -0.255695	           -0.422016	           -0.488211	           -0.443143	            0.186694	            0.185160	           -0.093279	           -0.232311	            0.006130	           -0.833667	           -0.431791	           -0.067998	            0.075348
            1.264000	           -0.319613	           -1.443957	            0.407316	           -0.233013	            0.005581	           -0.255695	           -0.411915	            0.093914	           -0.406967	            0.143811	           -0.919732	           -0.144129	           -0.232311	            0.006130	           -0.833667	           -0.431823	           -0.076913	           -0.075487
